<svg id="visual" viewBox="0 0 900 600" width="900" height="600" xmlns="http://www.w3.org/2000/svg" xmlns:xlink="http://www.w3.org/1999/xlink" version="1.1"><path d="M299 0L317.2 20C335.3 40 371.7 80 379.3 120C387 160 366 200 356.7 240C347.3 280 349.7 320 360 360C370.3 400 388.7 440 399.5 480C410.3 520 413.7 560 415.3 580L417 600L0 600L0 580C0 560 0 520 0 480C0 440 0 400 0 360C0 320 0 280 0 240C0 200 0 160 0 120C0 80 0 40 0 20L0 0Z" fill="#0066FF" stroke-linecap="round" stroke-linejoin="miter"></path></svg>